<?xml version="1.0" encoding="utf-8"?>
<!-- Generator: Adobe Illustrator 25.2.1, SVG Export Plug-In . SVG Version: 6.00 Build 0)  -->
<svg version="1.1" id="Layer_1" xmlns="http://www.w3.org/2000/svg" xmlns:xlink="http://www.w3.org/1999/xlink" x="0px" y="0px"
	 viewBox="0 0 2500 534" style="enable-background:new 0 0 2500 534;" xml:space="preserve">
<style type="text/css">
	.st0{fill:#CED4DA;}
</style>
<path xmlns="http://www.w3.org/2000/svg" d="M2895 5534 c-558 -74 -1083 -359 -1449 -785 -295 -343 -482 -759 -548 -1214 -17 -115 -16
 -503 0 -610 80 -507 262 -896 594 -1267 306 -341 782 -611 1241 -702 198 -40 311 -49 537 -43 366 10 645 78 965 237 420 208 774 544 996 
 945 220 398 324 861 289 1300 -53 690 -383 1290 -935 1703 -55 41 -107 77 -115 80 -8 3 -17 9 -20 12 -3 4 -41 28 -86 53 -267 154 -556 251 
 -867 292 -144 18 -460 18 -602 -1z m430 -858 c184 -87 228 -328 87 -471 -114 -116 -320 -115 -423 2 -58 66 -74 110 -74 203 0 75 3 91 29 137
  35 63 56 84 126 122 73 41 178 44 255 7z m27 -828 c38 -20 75 -50 99 -80 73 -93 70 -41 67 -1029 l-3 -884 -27 -50 c-32 -60 -87 -115 -148 -147
   -37 -19 -60 -23 -135 -23 -75 0 -98 4 -139 24 -66 32 -117 85 -152 157 l-29 59 0 880 0 880 28 60 c83 177 271 243 439 153z"/>
</svg>
